<svg width="100" height="100" viewBox="0 0 100 100" fill="none" xmlns="http://www.w3.org/2000/svg">
<path d="M12 8C9.81387 8 8 9.81387 8 12V88C8 90.1861 9.81387 92 12 92H88C90.1861 92 92 90.1861 92 88V12C92 9.81387 90.1861 8 88 8H12ZM12 12H88V88H12V12Z" fill="black"/>
<path d="M61.2102 43.0474C61.1193 41.7014 60.7443 40.6588 60.0852 39.9194C59.4261 39.1706 58.5966 38.7962 57.5966 38.7962C56.8807 38.7962 56.2614 38.9858 55.7386 39.3649C55.2159 39.7346 54.8097 40.2464 54.5199 40.9005C54.2358 41.545 54.0938 42.2796 54.0938 43.1043C54.0938 43.7962 54.1903 44.3934 54.3835 44.8957C54.5824 45.3981 54.8409 45.8199 55.1591 46.1611C55.483 46.4929 55.8295 46.7725 56.1989 47C56.5682 47.218 56.9233 47.3981 57.2642 47.5403L58.9688 48.2796C59.5256 48.5071 60.0966 48.8152 60.6818 49.2038C61.267 49.5924 61.8097 50.1043 62.3097 50.7393C62.8097 51.3744 63.2131 52.1611 63.5199 53.0995C63.8324 54.0379 63.9886 55.1611 63.9886 56.4692C63.9886 58.1185 63.733 59.5829 63.2216 60.8626C62.7159 62.1422 61.9801 63.1517 61.0142 63.891C60.054 64.6303 58.892 65 57.5284 65C56.2216 65 55.0909 64.654 54.1364 63.9621C53.1818 63.2701 52.4347 62.2891 51.8949 61.019C51.3551 59.7393 51.0568 58.2227 51 56.4692H53.642C53.6932 57.5213 53.8977 58.3981 54.2557 59.0995C54.6193 59.7915 55.0824 60.3081 55.6449 60.6493C56.2131 60.981 56.8352 61.1469 57.5114 61.1469C58.2557 61.1469 58.9176 60.9526 59.4972 60.564C60.0824 60.1659 60.5426 59.6161 60.8778 58.9147C61.2131 58.2038 61.3807 57.3744 61.3807 56.4265C61.3807 55.564 61.233 54.8578 60.9375 54.3081C60.6477 53.7583 60.2528 53.3033 59.7528 52.9431C59.2585 52.5829 58.6989 52.2654 58.0739 51.9905L56.0114 51.0521C54.6136 50.4171 53.5057 49.4834 52.6875 48.2512C51.875 47.019 51.4688 45.3886 51.4688 43.3602C51.4688 41.6825 51.7415 40.218 52.2869 38.9668C52.8324 37.7156 53.571 36.7441 54.5028 36.0521C55.4347 35.3507 56.4858 35 57.6562 35C58.8381 35 59.8807 35.346 60.7841 36.0379C61.6932 36.7299 62.4091 37.6825 62.9318 38.8957C63.4545 40.0995 63.7273 41.4834 63.75 43.0474H61.2102Z" fill="black"/>
<path d="M42.7447 35H46V55.9827C46 57.8805 45.7252 59.5039 45.1756 60.8526C44.6331 62.2013 43.8686 63.2322 42.8821 63.9451C41.8957 64.6484 40.7401 65 39.4154 65C38.1965 65 37.1008 64.6965 36.1285 64.0896C35.1631 63.4827 34.3986 62.6012 33.835 61.4451C33.2783 60.2794 33 58.8632 33 57.1965H36.2447C36.2447 58.0154 36.3821 58.7235 36.6569 59.3208C36.9388 59.9181 37.3228 60.3854 37.8089 60.7225C38.3022 61.0501 38.8659 61.2139 39.5 61.2139C40.1905 61.2139 40.7753 61.0164 41.2545 60.6214C41.7407 60.2168 42.1106 59.6243 42.3642 58.8439C42.6179 58.0636 42.7447 57.1098 42.7447 55.9827V35Z" fill="black"/>
</svg>
