<svg width="100" height="100" viewBox="0 0 100 100" fill="none" xmlns="http://www.w3.org/2000/svg">
<path d="M12 8C9.81387 8 8 9.81387 8 12V88C8 90.1861 9.81387 92 12 92H88C90.1861 92 92 90.1861 92 88V12C92 9.81387 90.1861 8 88 8H12ZM12 12H88V88H12V12Z" fill="black"/>
<path d="M78.4166 53.9897C78.4166 55.9253 78.0444 57.7399 77.2999 59.4335C76.5741 61.1085 75.5784 62.5788 74.3128 63.8443C73.0473 65.1099 71.5677 66.1149 69.8741 66.8593C68.1805 67.5852 66.3752 67.9481 64.4583 67.9481C63.2671 67.9481 62.0853 67.7992 60.9128 67.5014C60.7453 69.0461 60.3173 70.4792 59.6287 71.8006C58.9214 73.1406 58.0188 74.3038 56.9208 75.2902C55.8413 76.2766 54.6037 77.0396 53.2078 77.5793C51.7934 78.1377 50.3138 78.4168 48.7691 78.4168C47.0755 78.4168 45.4842 78.0911 43.9953 77.4397C42.5251 76.807 41.2316 75.9416 40.1149 74.8435C39.0169 73.7454 38.1514 72.452 37.5187 70.9631C36.8673 69.4742 36.5416 67.8922 36.5416 66.2172V65.3239C36.5974 65.0447 36.6439 64.7563 36.6812 64.4585H24.9003C24.2862 64.4585 23.7371 64.2352 23.2533 63.7885C22.8066 63.3046 22.5833 62.7556 22.5833 62.1414V38.8589C22.5833 38.2447 22.8066 37.6957 23.2533 37.2118C23.7371 36.7652 24.2862 36.5418 24.9003 36.5418H33.1358C33.3591 34.5691 33.9267 32.7079 34.8387 30.9585C35.732 29.3021 36.8859 27.8504 38.3003 26.6035C39.6962 25.3379 41.2874 24.3516 43.0741 23.6443C44.8608 22.9371 46.7591 22.5835 48.7691 22.5835C50.928 22.5835 52.9566 22.9929 54.8549 23.8118C56.7719 24.6493 58.4376 25.7753 59.852 27.1897C61.2664 28.6042 62.3924 30.2699 63.2299 32.1868C64.0488 34.0852 64.4583 36.1231 64.4583 38.3006V39.166C64.4583 39.4452 64.421 39.7336 64.3466 40.0314C66.2821 40.0314 68.0967 40.3943 69.7903 41.1202C71.5026 41.846 72.9821 42.8417 74.2291 44.1072C75.5505 45.3542 76.5741 46.8245 77.2999 48.5181C78.0444 50.2303 78.4166 52.0542 78.4166 53.9897ZM48.7412 26.0731C47.2337 26.0731 45.8006 26.3429 44.442 26.8827C43.0648 27.4038 41.8271 28.1296 40.7291 29.0602C39.6869 29.9907 38.8028 31.0888 38.077 32.3543C37.3698 33.6571 36.9045 35.0529 36.6812 36.5418H48.1828C48.797 36.5418 49.346 36.7745 49.8299 37.2397C50.2766 37.705 50.4999 38.2447 50.4999 38.8589V50.3606L51.0024 50.2768C51.3188 49.1229 51.7841 48.0249 52.3983 46.9827C52.9938 45.9218 53.7289 44.9727 54.6037 44.1352C55.4412 43.2977 56.3996 42.5625 57.4791 41.9297C58.4841 41.3156 59.5728 40.8503 60.7453 40.5339C60.8942 39.7336 60.9687 38.9892 60.9687 38.3006C60.9687 36.607 60.643 35.0157 59.9916 33.5268C59.3588 32.0566 58.4841 30.7724 57.3674 29.6743C56.2694 28.5763 54.9852 27.7016 53.5149 27.0502C52.026 26.3988 50.4348 26.0731 48.7412 26.0731ZM36.8208 59.5731C37.6583 59.5731 38.4958 59.4893 39.3333 59.3218C40.1149 59.1543 40.8221 58.8659 41.4549 58.4564C42.0877 58.0656 42.5995 57.5445 42.9903 56.8931C43.3439 56.2231 43.5208 55.4042 43.5208 54.4364C43.5208 53.45 43.3346 52.6311 42.9624 51.9797C42.553 51.3284 42.0412 50.7793 41.427 50.3327C40.8128 49.9046 40.1521 49.551 39.4449 49.2718L37.4349 48.4622C36.8394 48.2203 36.3276 47.9691 35.8995 47.7085C35.4901 47.4293 35.2853 47.0757 35.2853 46.6477C35.2853 46.3499 35.397 46.0986 35.6203 45.8939C35.8437 45.7078 36.1042 45.5682 36.402 45.4752C36.6998 45.3449 37.0069 45.2611 37.3233 45.2239C37.6583 45.2053 37.9374 45.196 38.1608 45.196C39.0727 45.196 39.8916 45.3077 40.6174 45.531C41.3246 45.7729 42.0598 46.1266 42.8228 46.5918V42.4602C42.3576 42.3299 41.9481 42.2182 41.5945 42.1252C41.2223 42.0321 40.8594 41.9577 40.5058 41.9018C40.1335 41.846 39.7427 41.7995 39.3333 41.7622C38.961 41.7436 38.5423 41.7343 38.077 41.7343C37.2767 41.7343 36.4578 41.8181 35.6203 41.9856C34.7828 42.1717 34.0198 42.4695 33.3312 42.8789C32.6798 43.307 32.1308 43.8281 31.6841 44.4422C31.256 45.0936 31.042 45.8939 31.042 46.8431C31.042 47.7736 31.2467 48.5274 31.6562 49.1043C32.0656 49.7557 32.5774 50.3047 33.1916 50.7514C33.8058 51.1795 34.4571 51.561 35.1458 51.896L37.1558 52.7056C37.7885 52.9661 38.3096 53.236 38.7191 53.5152C39.1285 53.8129 39.3333 54.1666 39.3333 54.576C39.3333 54.9296 39.2309 55.2088 39.0262 55.4135C38.8401 55.6182 38.5981 55.7671 38.3003 55.8602C38.0584 56.0091 37.7606 56.0835 37.407 56.0835H36.5416C35.4435 56.0835 34.4758 55.916 33.6383 55.581C32.7821 55.2088 31.926 54.7249 31.0699 54.1293V58.4843C32.9124 59.2102 34.8294 59.5731 36.8208 59.5731ZM48.7412 74.9272C49.9137 74.9272 51.0396 74.6946 52.1191 74.2293C53.1799 73.7827 54.1105 73.1685 54.9108 72.3868C55.6924 71.5866 56.3159 70.656 56.7812 69.5952C57.2464 68.5343 57.4791 67.4084 57.4791 66.2172C57.4791 65.175 57.3023 64.1793 56.9487 63.2302C56.6137 62.281 56.1391 61.4342 55.5249 60.6897C54.8921 59.9267 54.1477 59.2846 53.2916 58.7635C52.4541 58.2424 51.5235 57.8702 50.4999 57.6468V62.1414C50.4999 62.7556 50.2766 63.3046 49.8299 63.7885C49.346 64.2352 48.797 64.4585 48.1828 64.4585H40.1987C40.087 65.0354 40.0312 65.6217 40.0312 66.2172C40.0312 67.4084 40.2638 68.5343 40.7291 69.5952C41.1758 70.656 41.7899 71.5866 42.5716 72.3868C43.3719 73.1685 44.3024 73.7827 45.3633 74.2293C46.4241 74.6946 47.5501 74.9272 48.7412 74.9272ZM64.4583 64.4585C65.8913 64.4585 67.2406 64.1886 68.5062 63.6489C69.7903 63.1092 70.907 62.3554 71.8562 61.3877C72.8053 60.4385 73.5591 59.3311 74.1174 58.0656C74.6571 56.8 74.927 55.4414 74.927 53.9897C74.927 52.5939 74.6571 51.2446 74.1174 49.9418C73.5591 48.6577 72.8053 47.541 71.8562 46.5918C70.907 45.6427 69.7903 44.8889 68.5062 44.3306C67.2406 43.7909 65.8913 43.521 64.4583 43.521C63.0252 43.521 61.6759 43.8002 60.4103 44.3585C59.1448 44.9168 58.0374 45.6706 57.0883 46.6197C56.1391 47.5689 55.3853 48.6763 54.827 49.9418C54.2687 51.2446 53.9895 52.5939 53.9895 53.9897V54.576L54.0453 55.1902C54.9014 55.5996 55.6924 56.1021 56.4183 56.6977C57.1255 57.2932 57.7769 57.9539 58.3724 58.6797C58.9308 59.4242 59.4146 60.2245 59.8241 61.0806C60.2149 61.9367 60.5127 62.8207 60.7174 63.7327C61.9458 64.2166 63.1927 64.4585 64.4583 64.4585Z" fill="black"/>
</svg>
