<svg width="100" height="100" viewBox="0 0 100 100" fill="none" xmlns="http://www.w3.org/2000/svg">
<path d="M12 8C9.81387 8 8 9.81387 8 12V88C8 90.1861 9.81387 92 12 92H88C90.1861 92 92 90.1861 92 88V12C92 9.81387 90.1861 8 88 8H12ZM12 12H88V88H12V12Z" fill="black"/>
<path d="M30.9157 22C27.0921 22 24.2642 25.4483 24.3906 29.1883C24.5124 32.7801 24.3533 37.435 23.2158 41.2285C22.0768 45.0342 20.149 47.4398 17 47.7484V51.2516C20.149 51.5602 22.0768 53.9658 23.2158 57.7715C24.3533 61.565 24.5109 66.2199 24.3906 69.8117C24.2642 73.5517 27.0921 77 30.9157 77H70.0902C73.9138 77 76.7418 73.5517 76.6154 69.8117C76.4935 66.2199 76.6512 61.565 77.7872 57.7715C78.9277 53.9658 80.851 51.5602 84 51.2516V47.7484C80.851 47.4398 78.9277 45.0342 77.7872 41.2285C76.6497 37.435 76.4935 32.7801 76.6154 29.1883C76.7402 25.4483 73.9108 22 70.0873 22H30.9157ZM30.9157 25.0556H70.0873C71.2034 25.0556 71.9786 25.6145 72.4308 26.085C73.1922 26.8749 73.608 27.9686 73.5699 29.0839C73.4496 32.6436 73.5768 37.7914 74.8696 42.1058C76.0573 46.0719 77.9261 48.2931 79.8631 49.5C77.9277 50.7069 76.0588 52.9296 74.8696 56.8942C73.5768 61.2087 73.4496 66.3564 73.5699 69.9161C73.608 71.0314 73.1922 72.1236 72.4308 72.915C71.9786 73.3855 71.2034 73.9444 70.0873 73.9444H30.9157C29.7995 73.9444 29.0274 73.3855 28.5751 72.915C27.8137 72.1251 27.398 71.0314 27.436 69.9161C27.5563 66.3564 27.4262 61.2087 26.1334 56.8942C24.9457 52.9296 23.0768 50.7069 21.1399 49.5C23.0768 48.2931 24.9457 46.0704 26.1334 42.1058C27.4262 37.7914 27.5563 32.6436 27.436 29.0839C27.398 27.9686 27.8137 26.8749 28.5751 26.085C29.0274 25.6145 29.7995 25.0556 30.9157 25.0556ZM39.6387 35.189V63.808H51.3774C54.4274 63.808 56.9606 63.0623 58.6995 61.6476C60.4415 60.2314 61.3613 58.1713 61.3613 55.6887C61.3613 51.9395 58.7045 49.1214 54.747 48.6615V48.6168C57.6569 48.1126 59.9278 45.3767 59.9278 42.3624C59.9278 40.2312 59.112 38.4268 57.5664 37.1435C56.0269 35.8648 53.8639 35.189 51.3149 35.189H39.6387ZM44.2872 38.9339H50.2294C53.4895 38.9339 55.2853 40.3677 55.2853 42.9741C55.2838 45.7715 53.1514 47.3128 49.2806 47.3128H44.2872V38.9339ZM44.2872 50.8189H50.1877C54.4514 50.8189 56.6147 52.3663 56.6147 55.4142C56.6147 58.459 54.4816 60.0691 50.4494 60.0691H44.2872V50.8189Z" fill="black"/>
</svg>
