<svg width="100" height="100" viewBox="0 0 100 100" fill="none" xmlns="http://www.w3.org/2000/svg">
<path d="M12 8C9.81387 8 8 9.81387 8 12V88C8 90.1861 9.81387 92 12 92H88C90.1861 92 92 90.1861 92 88V12C92 9.81387 90.1861 8 88 8H12ZM12 12H88V88H12V12Z" fill="black"/>
<path d="M62.853 62.5418V59.0788C65.0766 60.464 67.0963 61.1566 68.9123 61.1566C69.672 61.1566 70.3993 60.9682 71.0942 60.5916C71.789 60.2028 72.3125 59.6499 72.6646 58.933C73.0259 58.2161 73.2066 57.4385 73.2066 56.6001C73.2066 55.6159 72.9611 54.6985 72.47 53.848C71.979 52.9853 71.0571 52.0375 69.7044 51.0047L68.2869 49.9294L66.8554 48.854C64.3354 46.8978 63.0753 44.4676 63.0753 41.5636C63.0753 39.4373 63.6359 37.6511 64.7569 36.2052C65.8873 34.7471 67.6476 34.0181 70.038 34.0181C71.576 34.0181 73.063 34.3097 74.4991 34.8929V38.046C72.9147 37.2441 71.3721 36.8431 69.8712 36.8431C68.676 36.8431 67.7078 37.2562 66.9666 38.0825C66.2347 38.9087 65.8687 39.9051 65.8687 41.0715C65.8687 42.2258 66.1513 43.1857 66.7165 43.9512C67.2816 44.7167 68.0043 45.4215 68.8845 46.0655L69.9685 46.9221L71.3165 47.9974L72.4561 48.8723C74.8187 50.7678 76 53.1493 76 56.0168C76 58.204 75.3931 60.0812 74.1794 61.6487C72.9657 63.2161 71.0201 63.9998 68.3425 63.9998C67.4901 63.9998 66.6748 63.9026 65.8965 63.7082C65.1275 63.526 64.113 63.1371 62.853 62.5418Z" fill="black"/>
<path d="M43.1975 62.5418V59.0788C45.4211 60.464 47.4408 61.1566 49.2568 61.1566C50.0165 61.1566 50.7438 60.9682 51.4387 60.5916C52.1336 60.2028 52.657 59.6499 53.0091 58.933C53.3704 58.2161 53.5511 57.4385 53.5511 56.6001C53.5511 55.6159 53.3056 54.6985 52.8145 53.848C52.3235 52.9853 51.4016 52.0375 50.0489 51.0047L48.6314 49.9294L47.2 48.854C44.6799 46.8978 43.4198 44.4676 43.4198 41.5636C43.4198 39.4373 43.9804 37.6511 45.1014 36.2052C46.2318 34.7471 47.9921 34.0181 50.3825 34.0181C51.9205 34.0181 53.4075 34.3097 54.8436 34.8929V38.046C53.2593 37.2441 51.7166 36.8431 50.2157 36.8431C49.0205 36.8431 48.0523 37.2562 47.3111 38.0825C46.5792 38.9087 46.2132 39.9051 46.2132 41.0715C46.2132 42.2258 46.4958 43.1857 47.061 43.9512C47.6261 44.7167 48.3488 45.4215 49.229 46.0655L50.313 46.9221L51.661 47.9974L52.8006 48.8723C55.1632 50.7678 56.3445 53.1493 56.3445 56.0168C56.3445 58.204 55.7376 60.0812 54.5239 61.6487C53.3102 63.2161 51.3646 63.9998 48.687 63.9998C47.8346 63.9998 47.0193 63.9026 46.241 63.7082C45.472 63.526 44.4575 63.1371 43.1975 62.5418Z" fill="black"/>
<path d="M36.4806 62.8153C34.8685 63.6051 33.4231 64 32.1445 64C30.4583 64 28.9064 63.4107 27.4889 62.2321C26.0713 61.0413 24.9688 59.2795 24.1813 56.9465C23.3938 54.6015 23 51.9526 23 49C23 46.0717 23.3891 43.4411 24.1674 41.1081C24.9456 38.7752 26.0435 37.0073 27.4611 35.8044C28.8786 34.6015 30.4398 34 32.1445 34C33.4231 34 34.8685 34.3949 36.4806 35.1847V38.5383C34.9889 37.4083 33.5065 36.8433 32.0334 36.8433C30.9216 36.8433 29.9024 37.3414 28.9759 38.3378C28.0587 39.3341 27.3175 40.7983 26.7523 42.7303C26.1872 44.6501 25.9046 46.74 25.9046 49C25.9046 51.2965 26.1964 53.4168 26.7801 55.3609C27.3638 57.305 28.1096 58.7631 29.0176 59.7351C29.9256 60.695 30.9308 61.175 32.0334 61.175C33.4972 61.175 34.9796 60.61 36.4806 59.48V62.8153Z" fill="black"/>
</svg>
