<svg width="100" height="100" viewBox="0 0 100 100" fill="none" xmlns="http://www.w3.org/2000/svg">
<path d="M12 8C9.81387 8 8 9.81387 8 12V88C8 90.1861 9.81387 92 12 92H88C90.1861 92 92 90.1861 92 88V12C92 9.81387 90.1861 8 88 8H12ZM12 12H88V88H12V12Z" fill="black"/>
<path d="M43.0312 26C38.0561 26 34 30.0612 34 35.0426C34 38.5535 36.0718 41.5243 39.0033 43.0213C36.0718 44.5182 34 47.4891 34 51C34 54.5109 36.0718 57.4818 39.0033 58.9787C36.0718 60.4757 34 63.4465 34 66.9574C34 71.9388 38.0561 76 43.0312 76C48.0064 76 52.0625 71.9388 52.0625 66.9574V58.9787V55.4215C53.4877 58.1295 56.2403 60.0426 59.5 60.0426C64.1818 60.0426 68 56.2196 68 51.5319C68 47.679 65.3716 44.5412 61.8533 43.4992C65.4007 42.2784 68 39.0002 68 35.0426C68 30.0612 63.9439 26 58.9688 26H51H43.0312ZM43.0312 28.1277H49.9375V41.9574H43.0312C39.2046 41.9574 36.125 38.874 36.125 35.0426C36.125 31.2111 39.2046 28.1277 43.0312 28.1277ZM52.0625 28.1277H58.9688C62.7954 28.1277 65.875 31.2111 65.875 35.0426C65.875 38.874 62.7954 41.9574 58.9688 41.9574H52.0625V28.1277ZM43.0312 44.0851H49.9375V57.9149H43.0312C39.2046 57.9149 36.125 54.8314 36.125 51C36.125 47.1686 39.2046 44.0851 43.0312 44.0851ZM52.0625 44.0851H55.6152C54.0906 44.8895 52.8659 46.1158 52.0625 47.6423V44.0851ZM59.5 45.1489C63.0334 45.1489 65.875 47.9941 65.875 51.5319C65.875 55.0697 63.0334 57.9149 59.5 57.9149C55.9666 57.9149 53.125 55.0697 53.125 51.5319C53.125 47.9941 55.9666 45.1489 59.5 45.1489ZM43.0312 60.0426H49.9375V66.9574C49.9375 70.7889 46.8579 73.8723 43.0312 73.8723C39.2046 73.8723 36.125 70.7889 36.125 66.9574C36.125 63.126 39.2046 60.0426 43.0312 60.0426Z" fill="black"/>
</svg>
