<svg width="100" height="100" viewBox="0 0 100 100" fill="none" xmlns="http://www.w3.org/2000/svg">
<path d="M12 8C9.81387 8 8 9.81387 8 12V88C8 90.1861 9.81387 92 12 92H88C90.1861 92 92 90.1861 92 88V12C92 9.81387 90.1861 8 88 8H12ZM12 12H88V88H12V12Z" fill="black"/>
<path d="M82 61.6946V65H71.7962V35H74.2558V61.6946H82Z" fill="black"/>
<path d="M54.5749 65H52.5902V35H55.062L59.4211 54.7552L63.7803 35H66.1912V65H63.9264V45.8827L63.9872 43.2539H63.9264L63.3906 45.8827L60.4683 59.0077H58.0087L55.0498 45.8827L54.5749 43.2539H54.514L54.5749 45.8827V65Z" fill="black"/>
<path d="M40.9335 65V38.3054H35.2715V35H49.0673V38.3054H43.3931V65H40.9335Z" fill="black"/>
<path d="M19 65V35H21.4596V47.9124H28.4489V35H30.8963V65H28.4489V50.9085H21.4596V65H19Z" fill="black"/>
</svg>
