<svg width="100" height="100" viewBox="0 0 100 100" fill="none" xmlns="http://www.w3.org/2000/svg">
<path d="M12 8C9.81387 8 8 9.81387 8 12V88C8 90.1861 9.81387 92 12 92H88C90.1861 92 92 90.1861 92 88V12C92 9.81387 90.1861 8 88 8H12ZM12 12H88V88H12V12ZM34 28L34.0703 72H39V28H34ZM63 28V43.7344V43.75C61.786 41.128 59.6463 40 57.4062 40C52.6063 40 48 44.744 48 55.75C48 65.992 51.7129 72.625 56.9609 72.625C60.2229 72.625 62.04 70.926 63 68.75V72H68C67.936 70.208 68 67.362 68 65.25V28H63ZM58.4922 44.2227C60.8602 44.2227 62.7167 47.05 62.9727 50.25C63.0367 50.952 62.9727 51.737 62.9727 52.375V61.5C62.9727 61.5 62.9147 62.674 62.7227 63.25C61.6347 67.728 59.6493 68.5273 58.1133 68.5273C54.5293 68.5273 52.9258 62.278 52.9258 55.75C52.9258 49.544 54.3962 44.2227 58.4922 44.2227Z" fill="black"/>
</svg>
