<svg width="100" height="100" viewBox="0 0 100 100" fill="none" xmlns="http://www.w3.org/2000/svg">
<path d="M12 8C9.81387 8 8 9.81387 8 12V88C8 90.1861 9.81387 92 12 92H88C90.1861 92 92 90.1861 92 88V12C92 9.81387 90.1861 8 88 8H12ZM12 12H88V88H12V12ZM39.8555 28L30 72H34.7969L37.6484 59.1328H47.25L50.0312 72H54.8945L45.2969 28H39.8555ZM65.4688 28C63.8208 28 62.5 29.251 62.5 31.125C62.5 32.999 63.7543 34.25 65.4023 34.25H65.4688C67.3148 34.25 68.5 32.999 68.5 31.125C68.5 29.251 67.3148 28 65.4688 28ZM42.4531 32.8789H42.6445C43.1565 36.0789 43.735 39.6624 44.375 42.7344L46.6445 54.0039L38.457 54L40.6602 42.8008C41.3002 39.8548 41.9391 36.1429 42.4531 32.8789ZM63 38V72H68V38H63Z" fill="black"/>
</svg>
