<svg width="100" height="100" viewBox="0 0 100 100" fill="none" xmlns="http://www.w3.org/2000/svg">
<path d="M12 8C9.81387 8 8 9.81387 8 12V88C8 90.1861 9.81387 92 12 92H88C90.1861 92 92 90.1861 92 88V12C92 9.81387 90.1861 8 88 8H12ZM12 12H88V88H12V12Z" fill="black"/>
<path d="M74.9729 43.0474C74.882 41.7014 74.507 40.6588 73.8479 39.9194C73.1888 39.1706 72.3593 38.7962 71.3593 38.7962C70.6434 38.7962 70.0241 38.9858 69.5013 39.3649C68.9786 39.7346 68.5724 40.2464 68.2826 40.9005C67.9985 41.545 67.8564 42.2796 67.8564 43.1043C67.8564 43.7962 67.953 44.3934 68.1462 44.8957C68.3451 45.3981 68.6036 45.8199 68.9218 46.1611C69.2457 46.4929 69.5922 46.7725 69.9616 47C70.3309 47.218 70.686 47.3981 71.0269 47.5403L72.7314 48.2796C73.2883 48.5071 73.8593 48.8152 74.4445 49.2038C75.0297 49.5924 75.5724 50.1043 76.0724 50.7393C76.5724 51.3744 76.9758 52.1611 77.2826 53.0995C77.5951 54.0379 77.7513 55.1611 77.7513 56.4692C77.7513 58.1185 77.4957 59.5829 76.9843 60.8626C76.4786 62.1422 75.7428 63.1517 74.7769 63.891C73.8167 64.6303 72.6547 65 71.2911 65C69.9843 65 68.8536 64.654 67.8991 63.9621C66.9445 63.2701 66.1974 62.2891 65.6576 61.019C65.1178 59.7393 64.8195 58.2227 64.7627 56.4692H67.4047C67.4559 57.5213 67.6604 58.3981 68.0184 59.0995C68.382 59.7915 68.8451 60.3081 69.4076 60.6493C69.9758 60.981 70.5979 61.1469 71.2741 61.1469C72.0184 61.1469 72.6803 60.9526 73.2599 60.564C73.8451 60.1659 74.3053 59.6161 74.6405 58.9147C74.9758 58.2038 75.1434 57.3744 75.1434 56.4265C75.1434 55.564 74.9956 54.8578 74.7002 54.3081C74.4104 53.7583 74.0155 53.3033 73.5155 52.9431C73.0212 52.5829 72.4616 52.2654 71.8366 51.9905L69.7741 51.0521C68.3763 50.4171 67.2684 49.4834 66.4502 48.2512C65.6377 47.019 65.2314 45.3886 65.2314 43.3602C65.2314 41.6825 65.5042 40.218 66.0496 38.9668C66.5951 37.7156 67.3337 36.7441 68.2655 36.0521C69.1974 35.3507 70.2485 35 71.4189 35C72.6008 35 73.6434 35.346 74.5468 36.0379C75.4559 36.7299 76.1718 37.6825 76.6945 38.8957C77.2172 40.0995 77.49 41.4834 77.5127 43.0474H74.9729Z" fill="black"/>
<path d="M59.5276 43.0474C59.4367 41.7014 59.0617 40.6588 58.4026 39.9194C57.7435 39.1706 56.914 38.7962 55.914 38.7962C55.1981 38.7962 54.5787 38.9858 54.056 39.3649C53.5333 39.7346 53.127 40.2464 52.8373 40.9005C52.5532 41.545 52.4111 42.2796 52.4111 43.1043C52.4111 43.7962 52.5077 44.3934 52.7009 44.8957C52.8998 45.3981 53.1583 45.8199 53.4765 46.1611C53.8003 46.4929 54.1469 46.7725 54.5162 47C54.8856 47.218 55.2407 47.3981 55.5816 47.5403L57.2861 48.2796C57.843 48.5071 58.414 48.8152 58.9992 49.2038C59.5844 49.5924 60.127 50.1043 60.627 50.7393C61.127 51.3744 61.5305 52.1611 61.8373 53.0995C62.1498 54.0379 62.306 55.1611 62.306 56.4692C62.306 58.1185 62.0503 59.5829 61.539 60.8626C61.0333 62.1422 60.2975 63.1517 59.3316 63.891C58.3714 64.6303 57.2094 65 55.8458 65C54.539 65 53.4083 64.654 52.4537 63.9621C51.4992 63.2701 50.752 62.2891 50.2123 61.019C49.6725 59.7393 49.3742 58.2227 49.3174 56.4692H51.9594C52.0106 57.5213 52.2151 58.3981 52.5731 59.0995C52.9367 59.7915 53.3998 60.3081 53.9623 60.6493C54.5305 60.981 55.1526 61.1469 55.8287 61.1469C56.5731 61.1469 57.235 60.9526 57.8145 60.564C58.3998 60.1659 58.86 59.6161 59.1952 58.9147C59.5305 58.2038 59.6981 57.3744 59.6981 56.4265C59.6981 55.564 59.5503 54.8578 59.2549 54.3081C58.9651 53.7583 58.5702 53.3033 58.0702 52.9431C57.5759 52.5829 57.0162 52.2654 56.3912 51.9905L54.3287 51.0521C52.931 50.4171 51.8231 49.4834 51.0049 48.2512C50.1924 47.019 49.7861 45.3886 49.7861 43.3602C49.7861 41.6825 50.0589 40.218 50.6043 38.9668C51.1498 37.7156 51.8884 36.7441 52.8202 36.0521C53.752 35.3507 54.8032 35 55.9736 35C57.1555 35 58.1981 35.346 59.1015 36.0379C60.0106 36.7299 60.7265 37.6825 61.2492 38.8957C61.7719 40.0995 62.0447 41.4834 62.0674 43.0474H59.5276Z" fill="black"/>
<path d="M35.5469 64.5169V35.3984H46.4901V39.1804H38.1804V48.0525H45.919V51.8202H38.1804V60.7349H46.5923V64.5169H35.5469Z" fill="black"/>
<path d="M22 64.5169V35.3984H24.6335V60.7349H32.5426V64.5169H22Z" fill="black"/>
</svg>
