<svg width="100" height="100" viewBox="0 0 100 100" fill="none" xmlns="http://www.w3.org/2000/svg">
<path d="M12 8C9.81387 8 8 9.81387 8 12V88C8 90.1861 9.81387 92 12 92H88C90.1861 92 92 90.1861 92 88V12C92 9.81387 90.1861 8 88 8H12ZM12 12H88V88H12V12ZM37.1719 28C34.2919 28 31.9879 28.32 30.0039 28.832L30 72H34.9297V53.6602C35.6337 53.7222 36.2735 53.7227 37.1055 53.7227C40.9455 53.7227 44.9772 52.1258 47.2812 48.9258C48.9473 46.7498 49.9023 44.0617 49.9023 40.0938C49.9023 36.3197 48.8155 33.1808 46.7695 31.1328C44.5295 28.9568 41.1379 28 37.1719 28ZM37.9531 31.2812C43.4551 31.2812 45.2461 35.2442 45.2461 39.6602C45.2461 45.7402 41.9816 48.9414 37.1836 48.9414C36.3516 48.9414 35.7752 48.8784 35.1992 48.8164V31.6016C35.8392 31.4076 36.8011 31.2812 37.9531 31.2812ZM63.4336 40C58.4516 40 54.6016 43.5373 54.6016 48.6133C54.6016 52.1473 56.8551 54.8465 61.0391 57.4805C64.2911 59.5365 65.1523 61.2079 65.1523 63.5859C65.1523 66.3479 63.2974 68.082 60.4414 68.082C58.3814 68.082 56.3897 67.1826 55.2617 66.4766L54 70.1992C55.394 71.2912 57.9846 72 60.3086 72C65.6206 72 70 68.9801 70 62.7461C70 58.4421 67.0812 55.5484 63.3672 53.2344C60.1792 51.1804 59.3828 49.9583 59.3828 47.9023C59.3828 45.8483 60.7741 43.9219 63.4961 43.9219C65.2221 43.9219 66.5525 44.4999 67.8125 45.3359L69.1406 41.6055C67.8126 40.7715 65.9576 40 63.4336 40Z" fill="black"/>
</svg>
