<svg width="100" height="100" viewBox="0 0 100 100" fill="none" xmlns="http://www.w3.org/2000/svg">
<path d="M12 8C9.81387 8 8 9.81387 8 12V88C8 90.1861 9.81387 92 12 92H88C90.1861 92 92 90.1861 92 88V12C92 9.81387 90.1861 8 88 8H12ZM12 12H88V88H12V12Z" fill="black"/>
<path d="M77.6243 43.0474C77.5334 41.7014 77.1584 40.6588 76.4993 39.9194C75.8402 39.1706 75.0107 38.7962 74.0107 38.7962C73.2947 38.7962 72.6754 38.9858 72.1527 39.3649C71.63 39.7346 71.2237 40.2464 70.9339 40.9005C70.6499 41.545 70.5078 42.2796 70.5078 43.1043C70.5078 43.7962 70.6044 44.3934 70.7976 44.8957C70.9964 45.3981 71.255 45.8199 71.5732 46.1611C71.897 46.4929 72.2436 46.7725 72.6129 47C72.9822 47.218 73.3374 47.3981 73.6783 47.5403L75.3828 48.2796C75.9396 48.5071 76.5107 48.8152 77.0959 49.2038C77.6811 49.5924 78.2237 50.1043 78.7237 50.7393C79.2237 51.3744 79.6271 52.1611 79.9339 53.0995C80.2464 54.0379 80.4027 55.1611 80.4027 56.4692C80.4027 58.1185 80.147 59.5829 79.6357 60.8626C79.13 62.1422 78.3942 63.1517 77.4283 63.891C76.468 64.6303 75.3061 65 73.9425 65C72.6357 65 71.505 64.654 70.5504 63.9621C69.5959 63.2701 68.8487 62.2891 68.3089 61.019C67.7692 59.7393 67.4709 58.2227 67.4141 56.4692H70.0561C70.1072 57.5213 70.3118 58.3981 70.6697 59.0995C71.0334 59.7915 71.4964 60.3081 72.0589 60.6493C72.6271 60.981 73.2493 61.1469 73.9254 61.1469C74.6697 61.1469 75.3317 60.9526 75.9112 60.564C76.4964 60.1659 76.9567 59.6161 77.2919 58.9147C77.6271 58.2038 77.7947 57.3744 77.7947 56.4265C77.7947 55.564 77.647 54.8578 77.3516 54.3081C77.0618 53.7583 76.6669 53.3033 76.1669 52.9431C75.6726 52.5829 75.1129 52.2654 74.4879 51.9905L72.4254 51.0521C71.0277 50.4171 69.9197 49.4834 69.1016 48.2512C68.2891 47.019 67.8828 45.3886 67.8828 43.3602C67.8828 41.6825 68.1555 40.218 68.701 38.9668C69.2465 37.7156 69.9851 36.7441 70.9169 36.0521C71.8487 35.3507 72.8999 35 74.0703 35C75.2521 35 76.2947 35.346 77.1982 36.0379C78.1072 36.7299 78.8232 37.6825 79.3459 38.8957C79.8686 40.0995 80.1413 41.4834 80.1641 43.0474H77.6243Z" fill="black"/>
<path d="M62.179 43.0474C62.0881 41.7014 61.7131 40.6588 61.054 39.9194C60.3949 39.1706 59.5653 38.7962 58.5653 38.7962C57.8494 38.7962 57.2301 38.9858 56.7074 39.3649C56.1847 39.7346 55.7784 40.2464 55.4886 40.9005C55.2045 41.545 55.0625 42.2796 55.0625 43.1043C55.0625 43.7962 55.1591 44.3934 55.3523 44.8957C55.5511 45.3981 55.8097 45.8199 56.1278 46.1611C56.4517 46.4929 56.7983 46.7725 57.1676 47C57.5369 47.218 57.892 47.3981 58.233 47.5403L59.9375 48.2796C60.4943 48.5071 61.0653 48.8152 61.6506 49.2038C62.2358 49.5924 62.7784 50.1043 63.2784 50.7393C63.7784 51.3744 64.1818 52.1611 64.4886 53.0995C64.8011 54.0379 64.9574 55.1611 64.9574 56.4692C64.9574 58.1185 64.7017 59.5829 64.1903 60.8626C63.6847 62.1422 62.9489 63.1517 61.983 63.891C61.0227 64.6303 59.8608 65 58.4972 65C57.1903 65 56.0597 64.654 55.1051 63.9621C54.1506 63.2701 53.4034 62.2891 52.8636 61.019C52.3239 59.7393 52.0256 58.2227 51.9688 56.4692H54.6108C54.6619 57.5213 54.8665 58.3981 55.2244 59.0995C55.5881 59.7915 56.0511 60.3081 56.6136 60.6493C57.1818 60.981 57.804 61.1469 58.4801 61.1469C59.2244 61.1469 59.8864 60.9526 60.4659 60.564C61.0511 60.1659 61.5114 59.6161 61.8466 58.9147C62.1818 58.2038 62.3494 57.3744 62.3494 56.4265C62.3494 55.564 62.2017 54.8578 61.9062 54.3081C61.6165 53.7583 61.2216 53.3033 60.7216 52.9431C60.2273 52.5829 59.6676 52.2654 59.0426 51.9905L56.9801 51.0521C55.5824 50.4171 54.4744 49.4834 53.6562 48.2512C52.8438 47.019 52.4375 45.3886 52.4375 43.3602C52.4375 41.6825 52.7102 40.218 53.2557 38.9668C53.8011 37.7156 54.5398 36.7441 55.4716 36.0521C56.4034 35.3507 57.4545 35 58.625 35C59.8068 35 60.8494 35.346 61.7528 36.0379C62.6619 36.7299 63.3778 37.6825 63.9006 38.8957C64.4233 40.0995 64.696 41.4834 64.7188 43.0474H62.179Z" fill="black"/>
<path d="M37.4695 64.5169H34.6741L40.9553 35.3984H43.9979L50.2792 64.5169H47.4837L42.5491 40.6875H42.4127L37.4695 64.5169ZM37.9383 53.1141H47.0065V56.8108H37.9383V53.1141Z" fill="black"/>
<path d="M30.2102 43.0474C30.1193 41.7014 29.7443 40.6588 29.0852 39.9194C28.4261 39.1706 27.5966 38.7962 26.5966 38.7962C25.8807 38.7962 25.2614 38.9858 24.7386 39.3649C24.2159 39.7346 23.8097 40.2464 23.5199 40.9005C23.2358 41.545 23.0938 42.2796 23.0938 43.1043C23.0938 43.7962 23.1903 44.3934 23.3835 44.8957C23.5824 45.3981 23.8409 45.8199 24.1591 46.1611C24.483 46.4929 24.8295 46.7725 25.1989 47C25.5682 47.218 25.9233 47.3981 26.2642 47.5403L27.9688 48.2796C28.5256 48.5071 29.0966 48.8152 29.6818 49.2038C30.267 49.5924 30.8097 50.1043 31.3097 50.7393C31.8097 51.3744 32.2131 52.1611 32.5199 53.0995C32.8324 54.0379 32.9886 55.1611 32.9886 56.4692C32.9886 58.1185 32.733 59.5829 32.2216 60.8626C31.7159 62.1422 30.9801 63.1517 30.0142 63.891C29.054 64.6303 27.892 65 26.5284 65C25.2216 65 24.0909 64.654 23.1364 63.9621C22.1818 63.2701 21.4347 62.2891 20.8949 61.019C20.3551 59.7393 20.0568 58.2227 20 56.4692H22.642C22.6932 57.5213 22.8977 58.3981 23.2557 59.0995C23.6193 59.7915 24.0824 60.3081 24.6449 60.6493C25.2131 60.981 25.8352 61.1469 26.5114 61.1469C27.2557 61.1469 27.9176 60.9526 28.4972 60.564C29.0824 60.1659 29.5426 59.6161 29.8778 58.9147C30.2131 58.2038 30.3807 57.3744 30.3807 56.4265C30.3807 55.564 30.233 54.8578 29.9375 54.3081C29.6477 53.7583 29.2528 53.3033 28.7528 52.9431C28.2585 52.5829 27.6989 52.2654 27.0739 51.9905L25.0114 51.0521C23.6136 50.4171 22.5057 49.4834 21.6875 48.2512C20.875 47.019 20.4688 45.3886 20.4688 43.3602C20.4688 41.6825 20.7415 40.218 21.2869 38.9668C21.8324 37.7156 22.571 36.7441 23.5028 36.0521C24.4347 35.3507 25.4858 35 26.6562 35C27.8381 35 28.8807 35.346 29.7841 36.0379C30.6932 36.7299 31.4091 37.6825 31.9318 38.8957C32.4545 40.0995 32.7273 41.4834 32.75 43.0474H30.2102Z" fill="black"/>
</svg>
