<svg width="100" height="100" viewBox="0 0 100 100" fill="none" xmlns="http://www.w3.org/2000/svg">
<path d="M12 8C9.81387 8 8 9.81387 8 12V88C8 90.1861 9.81387 92 12 92H88C90.1861 92 92 90.1861 92 88V12C92 9.81387 90.1861 8 88 8H12ZM12 12H88V88H12V12Z" fill="black"/>
<path d="M61.5978 23C60.8673 23 60.1858 23.2781 59.676 23.7359C59.6687 23.743 59.5694 23.8409 59.532 23.8821C59.4937 23.9243 59.4426 23.9843 59.3745 24.0599C59.2383 24.2111 59.0411 24.4279 58.7939 24.7035C58.2994 25.2547 57.5998 26.038 56.7618 26.9741C55.086 28.8463 52.8609 31.3343 50.6387 33.8196L42.4947 42.929C40.466 41.2815 38.2002 39.4425 36.583 38.129C35.0483 36.8825 33.7669 35.8417 32.8632 35.1068C32.4114 34.7394 32.054 34.4478 31.8078 34.2472C31.6847 34.1469 31.5893 34.0686 31.5243 34.0154C31.4961 33.9923 31.475 33.9768 31.459 33.9637L31.4568 33.9614H31.4545C31.0486 33.5972 30.5013 33.3696 29.913 33.3696C29.4648 33.3696 29.3445 33.4603 29.1164 33.5428C28.8884 33.6254 28.6411 33.7299 28.3693 33.8511C27.8258 34.0937 27.1919 34.4054 26.578 34.7153C25.3504 35.3351 24.2084 35.9507 24.2084 35.9507L24.2152 35.9642C23.4984 36.3578 23 37.1133 23 37.9783V62.1739C23 63.0769 23.5414 63.8633 24.3097 64.2397L24.3052 64.2487C24.3052 64.2487 25.3635 64.7882 26.4768 65.3491C27.0334 65.6296 27.6051 65.9155 28.0655 66.1435C28.5259 66.3715 28.7831 66.5063 29.0489 66.6138C29.3146 66.7215 29.6096 66.7826 29.913 66.7826C30.3187 66.7826 30.7109 66.6717 31.0472 66.4811L31.0495 66.4833C31.0495 66.4833 31.155 66.4146 31.1687 66.4045C31.1825 66.3944 31.1901 66.3909 31.1957 66.3865C31.2071 66.3778 31.212 66.3713 31.2182 66.3663C31.2308 66.3563 31.2425 66.3485 31.2565 66.337C31.2845 66.3141 31.3219 66.2838 31.369 66.2448C31.4632 66.1668 31.5975 66.0555 31.7673 65.914C32.107 65.631 32.5869 65.2293 33.1625 64.7483C34.3139 63.7864 35.8432 62.5069 37.3707 61.2288C40.0123 59.0183 41.9827 57.3681 42.6477 56.8114C46.8199 61.3399 50.9957 65.8723 54.1425 69.285C55.7579 71.037 57.1102 72.5028 58.0648 73.5359C58.5421 74.0524 58.9202 74.4608 59.1832 74.7443C59.3147 74.886 59.4163 74.9971 59.4893 75.0751C59.5258 75.1141 59.5561 75.143 59.5793 75.1674C59.6024 75.1918 59.53 75.1338 59.6805 75.2686L59.6828 75.2709C60.1906 75.7231 60.8698 76 61.5978 76C62.025 76 62.4285 75.8984 62.795 75.7277L62.7995 75.7367C62.7995 75.7367 65.5706 74.3032 68.3826 72.845C69.7886 72.1159 71.2047 71.3804 72.2914 70.8152C72.8348 70.5326 73.2961 70.2914 73.6326 70.1154C73.9692 69.9394 74.1041 69.8727 74.2582 69.7846C75.3001 69.1885 76 68.059 76 66.7826V32.2174C76 31.0328 75.3961 29.9732 74.4765 29.3527C74.3202 29.2468 74.3041 29.2481 74.1952 29.1884C74.0863 29.1288 73.9444 29.0529 73.7722 28.9611C73.4277 28.7777 72.9604 28.531 72.4107 28.2433C71.3114 27.6679 69.8829 26.9256 68.4659 26.191C65.6326 24.7223 62.8468 23.2858 62.8468 23.2858H62.8445C62.4656 23.1041 62.04 23 61.5978 23ZM61.5978 25.3043C61.724 25.3043 61.8261 25.338 61.9196 25.4011C62.0745 25.5059 62.1739 25.6721 62.1739 25.8804V37.4404L49.1647 48.3456C48.4882 47.7964 48.4848 47.7939 47.8032 47.2407C46.5266 46.2043 45.5324 45.3971 44.286 44.385C44.9838 43.6038 48.3145 39.8739 52.3557 35.3544C54.5778 32.8692 56.8035 30.3804 58.4789 28.5088C59.3165 27.573 60.0175 26.7928 60.5109 26.2427C60.7576 25.9677 60.9507 25.7502 61.0847 25.6014C61.1453 25.5341 61.1901 25.4838 61.2243 25.4461C61.324 25.3594 61.4472 25.3043 61.5978 25.3043ZM64.4783 26.7243C65.5411 27.273 65.9303 27.4716 67.406 28.2365C68.8216 28.9704 70.2499 29.714 71.344 30.2866C71.8911 30.5729 72.3543 30.8168 72.6898 30.9955C72.8575 31.0848 72.9933 31.1573 73.0881 31.2092C73.1828 31.2611 73.2952 31.3358 73.1848 31.261H73.1871V31.2632C73.4934 31.47 73.6957 31.812 73.6957 32.2174V66.7826C73.6957 67.2207 73.4605 67.5851 73.1128 67.784C73.1828 67.744 72.8974 67.8998 72.5637 68.0743C72.23 68.2488 71.7718 68.4875 71.2293 68.7697C70.1442 69.334 68.726 70.0706 67.3204 70.7995C65.8883 71.5421 65.5276 71.7279 64.4783 72.2712V26.7243ZM29.9445 35.7009C29.9533 35.7079 29.9739 35.7255 29.9851 35.7347C30.005 35.7511 30.0302 35.7724 30.0638 35.7999C30.1311 35.855 30.2282 35.9332 30.3519 36.034C30.5993 36.2356 30.9551 36.5259 31.4073 36.8936C32.3116 37.6289 33.5944 38.6713 35.1293 39.9181C38.1991 42.4115 42.2788 45.7233 46.3518 49.0297C54.2726 55.4597 61.7432 61.5228 62.1739 61.8724V73.1196C62.1739 73.3418 62.0568 73.5181 61.8836 73.6146L61.8026 73.6574C61.7391 73.68 61.6716 73.6957 61.5978 73.6957C61.446 73.6957 61.3238 73.6425 61.222 73.5539C61.2069 73.5379 61.1949 73.5238 61.1725 73.4999C61.1035 73.4261 61.0014 73.3164 60.871 73.1758C60.6101 72.8947 60.2338 72.4878 59.757 71.9719C58.8036 70.94 57.4522 69.475 55.837 67.7232C52.6065 64.2198 48.3182 59.5669 44.0339 54.9166C39.7497 50.2663 35.4694 45.6194 32.2534 42.1301C30.6454 40.3855 29.3036 38.9304 28.3603 37.9085C27.9526 37.4668 27.6569 37.1486 27.4084 36.8801C27.5132 36.8266 27.5087 36.826 27.6154 36.7721C28.2111 36.4713 28.8248 36.1707 29.3077 35.9552C29.5491 35.8475 29.7609 35.7609 29.9018 35.7099C29.9199 35.7034 29.9269 35.7055 29.9445 35.7009ZM25.3043 37.9985C25.3696 38.0686 25.4544 38.1595 25.5699 38.2843C25.8245 38.5593 26.1968 38.9597 26.6681 39.4702C27.175 40.0194 28.044 40.9627 28.7609 41.7408V58.3033L25.3088 62.1672C25.3066 62.1708 25.3043 62.1739 25.3043 62.1739V37.9985ZM62.1739 40.4469V58.9042C60.9442 57.9062 56.369 54.1922 50.9875 49.824L62.1739 40.4469ZM31.0652 44.241C32.5263 45.8263 34.5047 47.9749 36.2725 49.8938L31.0652 55.7222V44.241ZM37.841 51.5951C38.9773 52.8285 39.9076 53.8401 41.0837 55.1168C40.3669 55.717 38.4905 57.288 35.8922 59.4623C34.365 60.7402 32.8368 62.0183 31.6863 62.9795C31.1111 63.4601 30.6313 63.8615 30.2934 64.143C30.1244 64.2837 29.9903 64.3941 29.8995 64.4693L29.8973 64.4715C29.9337 64.4853 29.5304 64.2972 29.0872 64.0777C28.6355 63.854 28.0682 63.5715 27.5142 63.2923C27.4714 63.2708 27.4735 63.271 27.4309 63.2496L37.841 51.5951ZM29.9243 64.4715L30.4554 65.4212L29.9108 64.4805L29.913 64.4783L29.9243 64.4715Z" fill="black"/>
</svg>
