<svg width="100" height="100" viewBox="0 0 100 100" fill="none" xmlns="http://www.w3.org/2000/svg">
<path d="M12 8C9.81387 8 8 9.81387 8 12V88C8 90.1861 9.81387 92 12 92H88C90.1861 92 92 90.1861 92 88V12C92 9.81387 90.1861 8 88 8H12ZM12 12H88V88H12V12Z" fill="black"/>
<path d="M50 23.3198C35.2877 23.3198 23.32 35.2887 23.32 49.9998C23.32 64.7109 35.2877 76.6798 50 76.6798C64.7123 76.6798 76.68 64.7109 76.68 49.9998C76.68 35.2887 64.7123 23.3198 50 23.3198ZM50 29.1198C54.9416 29.1198 59.4726 30.8424 63.0465 33.7076C61.9376 34.4454 61.252 35.726 61.252 37.1238C61.252 38.9798 62.296 40.6038 63.456 42.4598C64.384 43.9678 65.312 45.9398 65.312 48.7238C65.312 50.6958 64.732 53.1318 63.572 56.1478L61.252 63.8038L53.016 39.2118C54.408 39.0958 55.684 38.9798 55.684 38.9798C56.844 38.8638 56.728 37.1238 55.568 37.1238C55.568 37.1238 55.568 37.1238 55.452 37.1238C55.452 37.1238 51.74 37.4718 49.304 37.4718C47.1 37.4718 43.272 37.1238 43.272 37.1238C43.272 37.1238 43.272 37.1238 43.156 37.1238C41.996 37.1238 41.88 38.9798 43.04 38.9798C43.04 38.9798 44.2 39.0958 45.476 39.2118L49.072 48.9558L44.084 63.9198L35.732 39.0958C37.124 38.9798 38.4 38.8638 38.4 38.8638C39.56 38.7478 39.444 37.0078 38.284 37.0078C38.284 37.0078 38.284 37.0078 38.168 37.0078C38.168 37.0078 35.6717 37.2421 33.4294 37.3257C37.2435 32.3446 43.2349 29.1198 50 29.1198ZM29.12 49.9998C29.12 47.9118 29.4344 45.8992 30.0039 43.998L38.6158 67.4949C32.9028 63.7702 29.12 57.3345 29.12 49.9998ZM43.8265 69.9518L50 51.8558L56.5946 69.8022C54.5205 70.4912 52.3072 70.8798 50 70.8798C47.8505 70.8798 45.7776 70.5539 43.8265 69.9518ZM61.9526 67.1098L68.096 49.3038C69.0078 46.9838 69.4996 44.9631 69.7084 43.1512C70.4543 45.2983 70.88 47.5963 70.88 49.9998C70.88 57.0886 67.3466 63.3363 61.9526 67.1098Z" fill="black"/>
</svg>
