<svg width="51" height="52" viewBox="0 0 51 52" fill="none" xmlns="http://www.w3.org/2000/svg">
<g clip-path="url(#clip0_70_528)">
<path d="M14.3438 21.2188C14.3438 19.528 15.0154 17.9065 16.2109 16.7109C17.4065 15.5154 19.028 14.8438 20.7188 14.8438L23.9062 21.2188L21.4519 24.8983C22.4255 27.2247 24.2753 29.0745 26.6017 30.0481L30.2812 27.5938L36.6562 30.7812C36.6562 32.472 35.9846 34.0935 34.7891 35.2891C33.5935 36.4846 31.972 37.1562 30.2812 37.1562C26.0544 37.1563 22.0006 35.4771 19.0117 32.4883C16.0229 29.4994 14.3438 25.4456 14.3438 21.2188Z" stroke="black" stroke-width="2" stroke-linecap="round" stroke-linejoin="round"/>
<path d="M15.9236 42.5571C19.9409 44.8821 24.6667 45.6668 29.2198 44.7649C33.773 43.863 37.8427 41.336 40.6703 37.655C43.4979 33.9741 44.8903 29.3904 44.5879 24.7587C44.2856 20.1269 42.3091 15.7632 39.027 12.481C35.7448 9.19891 31.3811 7.22242 26.7493 6.92007C22.1176 6.61771 17.5339 8.01013 13.853 10.8377C10.172 13.6653 7.64501 17.735 6.74308 22.2882C5.84115 26.8413 6.62586 31.5671 8.95092 35.5844L6.45869 43.0252C6.36504 43.3061 6.35145 43.6074 6.41944 43.8955C6.48743 44.1836 6.63431 44.4471 6.84363 44.6564C7.05295 44.8657 7.31642 45.0126 7.60452 45.0806C7.89262 45.1486 8.19397 45.135 8.47478 45.0413L15.9236 42.5571Z" stroke="black" stroke-width="2" stroke-linecap="round" stroke-linejoin="round"/>
</g>
<defs>
<clipPath id="clip0_70_528">
<rect width="51" height="51" fill="white" transform="translate(0 0.5)"/>
</clipPath>
</defs>
</svg>
