<svg width="100" height="100" viewBox="0 0 100 100" fill="none" xmlns="http://www.w3.org/2000/svg">
<path d="M12 8C9.81387 8 8 9.81387 8 12V88C8 90.1861 9.81387 92 12 92H88C90.1861 92 92 90.1861 92 88V12C92 9.81387 90.1861 8 88 8H12ZM12 12H88V88H12V12ZM69 28V43.7344V43.75C67.786 41.128 65.6463 40 63.4062 40C58.6063 40 54 44.744 54 55.75C54 65.992 57.7129 72.625 62.9609 72.625C66.2229 72.625 68.04 70.926 69 68.75V72H74C73.936 70.208 74 67.362 74 65.25V28H69ZM26.0703 30L37.0352 51L26.0703 72H31L39.5117 55.7461L48 72H53L42 51L53 30H48L39.5117 46.2539L31 30H26.0703ZM64.4922 44.2227C66.8602 44.2227 68.7167 47.05 68.9727 50.25C69.0367 50.952 68.9727 51.737 68.9727 52.375V61.5C68.9727 61.5 68.9147 62.674 68.7227 63.25C67.6347 67.728 65.6493 68.5273 64.1133 68.5273C60.5293 68.5273 58.9258 62.278 58.9258 55.75C58.9258 49.544 60.3962 44.2227 64.4922 44.2227Z" fill="black"/>
</svg>
